<svg width="28" height="28" viewBox="0 0 28 28" fill="none" xmlns="http://www.w3.org/2000/svg">
<path d="M16 12V2C16 1.46957 15.7893 0.960859 15.4142 0.585787C15.0391 0.210714 14.5304 0 14 0C13.4696 0 12.9609 0.210714 12.5858 0.585787C12.2107 0.960859 12 1.46957 12 2V12H2C1.46957 12 0.960859 12.2107 0.585787 12.5858C0.210714 12.9609 0 13.4696 0 14C0 14.5304 0.210714 15.0391 0.585787 15.4142C0.960859 15.7893 1.46957 16 2 16H12V26C12 26.5304 12.2107 27.0391 12.5858 27.4142C12.9609 27.7893 13.4696 28 14 28C14.5304 28 15.0391 27.7893 15.4142 27.4142C15.7893 27.0391 16 26.5304 16 26V16H26C26.5304 16 27.0391 15.7893 27.4142 15.4142C27.7893 15.0391 28 14.5304 28 14C28 13.4696 27.7893 12.9609 27.4142 12.5858C27.0391 12.2107 26.5304 12 26 12H16Z" fill="#EAF2FF"/>
</svg>
