<svg width="20" height="20" viewBox="0 0 20 20" fill="none" xmlns="http://www.w3.org/2000/svg">
<path d="M6.16666 11.6667C7.54738 11.6667 8.66666 10.5474 8.66666 9.16666C8.66666 7.78594 7.54738 6.66666 6.16666 6.66666C4.78595 6.66666 3.66666 7.78594 3.66666 9.16666C3.66666 10.5474 4.78595 11.6667 6.16666 11.6667Z" stroke="#D4D6DD" stroke-width="1.66667" stroke-linecap="round" stroke-linejoin="round"/>
<path d="M8.66666 6.66666V11.6667" stroke="#D4D6DD" stroke-width="1.66667" stroke-linecap="round" stroke-linejoin="round"/>
<path d="M14.5 11.6667C15.8807 11.6667 17 10.5474 17 9.16666C17 7.78594 15.8807 6.66666 14.5 6.66666C13.1193 6.66666 12 7.78594 12 9.16666C12 10.5474 13.1193 11.6667 14.5 11.6667Z" stroke="#D4D6DD" stroke-width="1.66667" stroke-linecap="round" stroke-linejoin="round"/>
<path d="M12 5V11.6667M18.6667 13.3333V14.1667C18.6667 14.5833 18.25 15 17.8333 15H2.83333C2.41667 15 2 14.5833 2 14.1667V13.3333" stroke="#D4D6DD" stroke-width="1.66667" stroke-linecap="round" stroke-linejoin="round"/>
</svg>
