<svg width="21" height="20" viewBox="0 0 21 20" fill="none" xmlns="http://www.w3.org/2000/svg">
<path fill-rule="evenodd" clip-rule="evenodd" d="M18.8333 3.88889C18.3913 3.88889 17.9674 4.06448 17.6548 4.37704C17.3423 4.6896 17.1667 5.11353 17.1667 5.55556V6.66667H20.5V5.55556C20.5 5.11353 20.3244 4.6896 20.0118 4.37704C19.6993 4.06448 19.2754 3.88889 18.8333 3.88889ZM20.5 7.77778H17.1667V16.9444L18.8333 19.4444L20.5 16.9444V7.77778ZM0.5 1.66667V18.3333C0.5 18.7754 0.675595 19.1993 0.988155 19.5118C1.30072 19.8244 1.72464 20 2.16667 20H14.3889C14.8309 20 15.2548 19.8244 15.5674 19.5118C15.88 19.1993 16.0556 18.7754 16.0556 18.3333V1.66667C16.0556 1.22464 15.88 0.800716 15.5674 0.488155C15.2548 0.175595 14.8309 0 14.3889 0H2.16667C1.72464 0 1.30072 0.175595 0.988155 0.488155C0.675595 0.800716 0.5 1.22464 0.5 1.66667ZM8.27778 5C8.27778 4.85266 8.33631 4.71135 8.4405 4.60716C8.54468 4.50298 8.68599 4.44444 8.83333 4.44444H13.2778C13.4251 4.44444 13.5664 4.50298 13.6706 4.60716C13.7748 4.71135 13.8333 4.85266 13.8333 5C13.8333 5.14734 13.7748 5.28865 13.6706 5.39284C13.5664 5.49702 13.4251 5.55556 13.2778 5.55556H8.83333C8.68599 5.55556 8.54468 5.49702 8.4405 5.39284C8.33631 5.28865 8.27778 5.14734 8.27778 5ZM8.83333 6.66667C8.68599 6.66667 8.54468 6.7252 8.4405 6.82938C8.33631 6.93357 8.27778 7.07488 8.27778 7.22222C8.27778 7.36957 8.33631 7.51087 8.4405 7.61506C8.54468 7.71925 8.68599 7.77778 8.83333 7.77778H13.2778C13.4251 7.77778 13.5664 7.71925 13.6706 7.61506C13.7748 7.51087 13.8333 7.36957 13.8333 7.22222C13.8333 7.07488 13.7748 6.93357 13.6706 6.82938C13.5664 6.7252 13.4251 6.66667 13.2778 6.66667H8.83333ZM8.27778 12.2222C8.27778 12.0749 8.33631 11.9336 8.4405 11.8294C8.54468 11.7252 8.68599 11.6667 8.83333 11.6667H13.2778C13.4251 11.6667 13.5664 11.7252 13.6706 11.8294C13.7748 11.9336 13.8333 12.0749 13.8333 12.2222C13.8333 12.3696 13.7748 12.5109 13.6706 12.6151C13.5664 12.7192 13.4251 12.7778 13.2778 12.7778H8.83333C8.68599 12.7778 8.54468 12.7192 8.4405 12.6151C8.33631 12.5109 8.27778 12.3696 8.27778 12.2222ZM8.83333 13.8889C8.68599 13.8889 8.54468 13.9474 8.4405 14.0516C8.33631 14.1558 8.27778 14.2971 8.27778 14.4444C8.27778 14.5918 8.33631 14.7331 8.4405 14.8373C8.54468 14.9415 8.68599 15 8.83333 15H13.2778C13.4251 15 13.5664 14.9415 13.6706 14.8373C13.7748 14.7331 13.8333 14.5918 13.8333 14.4444C13.8333 14.2971 13.7748 14.1558 13.6706 14.0516C13.5664 13.9474 13.4251 13.8889 13.2778 13.8889H8.83333ZM3.83333 12.2222V13.8889H5.5V12.2222H3.83333ZM3.27778 11.1111H6.05556C6.2029 11.1111 6.34421 11.1696 6.44839 11.2738C6.55258 11.378 6.61111 11.5193 6.61111 11.6667V14.4444C6.61111 14.5918 6.55258 14.7331 6.44839 14.8373C6.34421 14.9415 6.2029 15 6.05556 15H3.27778C3.13044 15 2.98913 14.9415 2.88494 14.8373C2.78075 14.7331 2.72222 14.5918 2.72222 14.4444V11.6667C2.72222 11.5193 2.78075 11.378 2.88494 11.2738C2.98913 11.1696 3.13044 11.1111 3.27778 11.1111ZM7.00389 5.39278C7.10509 5.288 7.16109 5.14766 7.15982 5.002C7.15855 4.85633 7.10013 4.71699 6.99712 4.61399C6.89412 4.51099 6.75478 4.45256 6.60911 4.45129C6.46345 4.45003 6.32311 4.50602 6.21833 4.60722L4.38889 6.43667L3.67056 5.71833C3.56578 5.61713 3.42544 5.56114 3.27978 5.5624C3.13411 5.56367 2.99477 5.6221 2.89177 5.7251C2.78876 5.82811 2.73034 5.96745 2.72907 6.11311C2.7278 6.25878 2.7838 6.39911 2.885 6.50389L4.38889 8.00778L7.00389 5.39278Z" fill="#006FFD"/>
</svg>
